<?xml version="1.0" encoding="utf-8"?>
<!-- Generator: Adobe Illustrator 19.2.1, SVG Export Plug-In . SVG Version: 6.00 Build 0)  -->
<svg version="1.1" id="Layer_1" xmlns="http://www.w3.org/2000/svg" xmlns:xlink="http://www.w3.org/1999/xlink" x="0px" y="0px"
	 viewBox="0 0 47.8 44" style="enable-background:new 0 0 47.8 44;" xml:space="preserve">
<style type="text/css">
	.st0{fill:#FFFFFF;}
</style>
<g>
	<g>
		<path class="st0" d="M42.2,22.1c-0.5-0.3-1.2-0.1-1.4,0.4L23.9,41.4L7,22.5c-0.3-0.5-0.9-0.6-1.4-0.4c-0.5,0.3-0.7,0.9-0.4,1.3
			l17.7,19.9c0.2,0.3,0.6,0.5,1,0.5s0.8-0.2,1-0.5l17.7-19.8C42.9,23,42.7,22.4,42.2,22.1z"/>
	</g>
</g>
<g>
	<g>
		<path class="st0" d="M42.2,11.1c-0.5-0.3-1.2-0.1-1.4,0.4L23.9,30.4L7,11.5c-0.3-0.5-0.9-0.6-1.4-0.4c-0.5,0.3-0.7,0.9-0.4,1.3
			l17.7,19.9c0.2,0.3,0.6,0.5,1,0.5s0.8-0.2,1-0.5l17.7-19.8C42.9,12,42.7,11.4,42.2,11.1z"/>
	</g>
</g>
<g>
	<g>
		<path class="st0" d="M42.2,0.1C41.7-0.2,41,0,40.8,0.5L23.9,19.4L7,0.5C6.7,0,6.1-0.1,5.6,0.1C5.1,0.4,4.9,1,5.2,1.4l17.7,19.9
			c0.2,0.3,0.6,0.5,1,0.5s0.8-0.2,1-0.5L42.6,1.5C42.9,1,42.7,0.4,42.2,0.1z"/>
	</g>
</g>
</svg>
