<svg id="Layer_1" data-name="Layer 1" xmlns="http://www.w3.org/2000/svg" viewBox="0 0 140.25 77.04"><defs><style>.cls-1{fill:#fff;}</style></defs><title>Untitled-2</title><path class="cls-1" d="M18.69,50.7a8.93,8.93,0,1,0,8.93,8.93,8.94,8.94,0,0,0-8.93-8.93m0,14.32a5.4,5.4,0,1,1,5.4-5.4,5.4,5.4,0,0,1-5.4,5.4" transform="translate(-9.76 -5.36)"/><path class="cls-1" d="M112.7,50.7a8.93,8.93,0,1,0,8.93,8.93,8.94,8.94,0,0,0-8.93-8.93m5.4,8.93a5.4,5.4,0,1,1-5.4-5.4,5.4,5.4,0,0,1,5.4,5.4" transform="translate(-9.76 -5.36)"/><rect class="cls-1" x="80.84" y="45.33" width="3.53" height="17.85"/><polygon class="cls-1" points="52.03 45.33 52.03 48.86 59.76 48.86 59.76 63.19 63.28 63.19 63.28 48.86 71.01 48.86 71.01 45.33 52.03 45.33"/><polygon class="cls-1" points="136.72 45.33 136.72 57.61 140.25 59.63 135.94 59.63 135.94 59.63 135.79 59.63 127.98 45.33 121.75 45.33 121.75 48.86 121.75 63.19 125.28 63.19 125.28 50.89 121.76 48.87 125.28 48.87 125.28 48.86 126.02 48.86 133.85 63.19 140.25 63.19 140.25 59.63 140.25 45.33 136.72 45.33"/><path class="cls-1" d="M48.49,50.7H37.38V54.2H48.49a3.24,3.24,0,0,1,0,6.47H40.91V56.23l-3.53-2V68.55h3.53V64.21h7.58a6.76,6.76,0,1,0,0-13.51" transform="translate(-9.76 -5.36)"/><polygon class="cls-1" points="45.38 70.22 49.96 70.22 49.96 71.61 46.89 71.61 46.89 72.99 49.73 72.99 49.73 74.38 46.89 74.38 46.89 77.04 45.38 77.04 45.38 70.22"/><rect class="cls-1" x="61.38" y="70.22" width="1.5" height="6.83"/><polygon class="cls-1" points="73.93 70.22 75.65 70.22 77.34 74.69 77.36 74.69 79.07 70.22 80.68 70.22 77.87 77.04 76.66 77.04 73.93 70.22"/><polygon class="cls-1" points="91.81 70.22 96.44 70.22 96.44 71.61 93.31 71.61 93.31 72.88 96.27 72.88 96.27 74.27 93.31 74.27 93.31 75.66 96.62 75.66 96.62 77.04 91.81 77.04 91.81 70.22"/><polygon class="cls-1" points="59.53 11.61 51.83 19.31 57.13 24.61 70.92 38.41 64.83 16.91 59.53 11.61"/><polygon class="cls-1" points="69.02 15.09 77.62 6.48 75.34 4.2 68.05 11.49 69.02 15.09"/><polygon class="cls-1" points="73.42 2.28 71.14 0 66.24 4.9 67.22 8.48 73.42 2.28"/><polygon class="cls-1" points="70.83 21.68 81.83 10.69 79.55 8.41 69.86 18.09 70.83 21.68"/><polygon class="cls-1" points="83.75 12.61 71.66 24.7 72.63 28.29 86.03 14.89 83.75 12.61"/><polygon class="cls-1" points="87.95 16.81 73.47 31.3 74.44 34.89 90.23 19.09 87.95 16.81"/></svg>