<?xml version="1.0" encoding="utf-8"?>
<!-- Generator: Adobe Illustrator 19.2.1, SVG Export Plug-In . SVG Version: 6.00 Build 0)  -->
<svg version="1.1" id="Layer_1" xmlns="http://www.w3.org/2000/svg" xmlns:xlink="http://www.w3.org/1999/xlink" x="0px" y="0px"
	 viewBox="0 0 200 200" style="enable-background:new 0 0 200 200;" xml:space="preserve">
<style type="text/css">
	.st0{fill:none;stroke:#4C4E56;stroke-width:4;stroke-linecap:round;stroke-linejoin:round;stroke-miterlimit:10;}
</style>
<g>
	<g>
		<path class="st0" d="M40.7,32.3C21.9,48.8,10,73,10,100c0,49.7,40.3,90,90,90s90-40.3,90-90c0-49.7-40.3-90-90-90
			c-15.7,0-30.5,4-43.3,11.1"/>
	</g>
	<g>
		<path class="st0" d="M110.2,72.3L110.2,72.3L110.2,72.3c0.1,0.1,0.3,0.2,0.4,0.3l22.8,22.8l7.2,7.2l23.1-23.2l-27.4-27.4l-8.9,8.7
			c-1.7,1.7-4.1,2.6-6.6,2.4l-15.5-1.1c-1.5-0.1-2.9,0.1-4.3,0.6c-2,0.8-3.8,1.9-5.3,3.4l-3.1,3.2"/>
		<g>
			<path class="st0" d="M143.2,105.3l-1.3-1.3l-1.3-1.3l-7.2-7.2l-22.8-22.8c-0.1-0.1-0.3-0.2-0.4-0.3L94.6,87.7
				c-2.8,2.8-7.3,2.8-10.1,0c-2.8-2.8-2.9-7.3-0.1-10.1l0,0l0,0l8.2-8.4l-7.2,0.5c-2.4,0.2-4.8-0.7-6.6-2.4L63.6,52.1L36.3,79.4
				l23.2,23.2l4.8,4.8c0.4-0.9,0.9-1.7,1.6-2.5l6.9-6.9c3-3,7.8-3,10.8,0l25.4,25.3c3,3,3,7.8,0,10.8l-6.9,6.9
				c-0.8,0.8-1.6,1.3-2.6,1.7l0.4,0.4l1.3,1.3l1.3,1.3c2.9,2.9,7.6,2.8,10.4-0.3l29.8-29.8C146,112.9,146.1,108.2,143.2,105.3z"/>
			<path class="st0" d="M99.7,142.8c0.9-0.4,1.8-0.9,2.6-1.7l6.9-6.9c3-3,3-7.8,0-10.8L83.7,98.1c-3-3-7.8-3-10.8,0l-6.9,6.9
				c-0.7,0.7-1.3,1.6-1.6,2.5"/>
			<path class="st0" d="M64.4,107.5c-1.1,2.8-0.6,6.1,1.7,8.3l25.4,25.3c2.2,2.2,5.5,2.8,8.2,1.7"/>
		</g>
	</g>
</g>
</svg>
