<svg id="Layer_1" data-name="Layer 1" xmlns="http://www.w3.org/2000/svg" viewBox="0 0 45 45"><defs><style>.cls-1{fill:#4c4e56;}</style></defs><title>Untitled-2</title><path class="cls-1" d="M19.87,25.83H14.64v5h5c0.74,0,2.16-.24,2.16-2.43C21.76,25.81,19.87,25.83,19.87,25.83Z" transform="translate(-2.5 -2.5)"/><path class="cls-1" d="M21.14,20.72c0-1.95-1.27-1.95-1.27-1.95H14.64v4.18h4.9C20.39,22.95,21.14,22.66,21.14,20.72Z" transform="translate(-2.5 -2.5)"/><path class="cls-1" d="M33.25,22.95c-2.77,0-3.16,2.89-3.16,2.89H36S36,22.95,33.25,22.95Z" transform="translate(-2.5 -2.5)"/><path class="cls-1" d="M25,2.5A22.5,22.5,0,1,0,47.5,25,22.5,22.5,0,0,0,25,2.5Zm4.32,14h7.41v2.31H29.32V16.54ZM25.57,28.64c0,5.71-5.71,5.53-5.71,5.53H10.52V15.44h9.35c2.84,0,5.08,1.63,5.08,5S22.21,24,22.21,24C25.82,24,25.57,28.64,25.57,28.64Zm13.86-.31H30.13a3,3,0,0,0,3.16,3.26c3,0,2.88-2,2.88-2h3.16c0,5.35-6.15,5-6.15,5-7.38,0-6.9-7.16-6.9-7.16s0-7.19,6.9-7.19C40.45,20.2,39.43,28.33,39.43,28.33Z" transform="translate(-2.5 -2.5)"/></svg>