<?xml version="1.0" encoding="utf-8"?>
<!-- Generator: Adobe Illustrator 19.1.0, SVG Export Plug-In . SVG Version: 6.00 Build 0)  -->
<svg version="1.1" id="Layer_1" xmlns="http://www.w3.org/2000/svg" xmlns:xlink="http://www.w3.org/1999/xlink" x="0px" y="0px"
	 viewBox="-10 9 38 44" style="enable-background:new -10 9 38 44;" xml:space="preserve">
<style type="text/css">
	.st0{fill:#FFFFFF;}
</style>
<g>
	<path class="st0" d="M27.3,31.3c-0.5-0.3-1.2-0.1-1.4,0.4L9,50.6L-7.9,31.7c-0.3-0.5-0.9-0.6-1.4-0.4c-0.5,0.3-0.7,0.9-0.4,1.3
		L8,52.5C8.2,52.8,8.6,53,9,53s0.8-0.2,1-0.5l17.7-19.8C28,32.2,27.8,31.6,27.3,31.3z"/>
</g>
<g>
	<path class="st0" d="M27.3,9.1c-0.5-0.3-1.2-0.1-1.4,0.4L9,28.4L-7.9,9.5C-8.2,9-8.8,8.9-9.3,9.1C-9.8,9.4-10,10-9.7,10.4L8,30.3
		c0.2,0.3,0.6,0.5,1,0.5s0.8-0.2,1-0.5l17.7-19.8C28,10,27.8,9.4,27.3,9.1z"/>
</g>
</svg>
