<?xml version="1.0" encoding="utf-8"?>
<!-- Generator: Adobe Illustrator 19.2.1, SVG Export Plug-In . SVG Version: 6.00 Build 0)  -->
<svg version="1.1" id="Layer_1" xmlns="http://www.w3.org/2000/svg" xmlns:xlink="http://www.w3.org/1999/xlink" x="0px" y="0px"
	 viewBox="0 0 38 44" style="enable-background:new 0 0 38 44;" xml:space="preserve">
<g>
	<g>
		<path d="M0.7,21.7c0.5,0.3,1.2,0.1,1.4-0.4L19,2.4l16.9,18.9c0.3,0.5,0.9,0.6,1.4,0.4c0.5-0.3,0.7-0.9,0.4-1.3L20,0.5
			C19.8,0.2,19.4,0,19,0s-0.8,0.2-1,0.5L0.3,20.3C0,20.8,0.2,21.4,0.7,21.7z"/>
	</g>
	<g>
		<path d="M0.7,43.9c0.5,0.3,1.2,0.1,1.4-0.4L19,24.6l16.9,18.9c0.3,0.5,0.9,0.6,1.4,0.4c0.5-0.3,0.7-0.9,0.4-1.3L20,22.7
			c-0.2-0.3-0.6-0.5-1-0.5s-0.8,0.2-1,0.5L0.3,42.5C0,43,0.2,43.6,0.7,43.9z"/>
	</g>
</g>
</svg>
