<?xml version="1.0" encoding="utf-8"?>
<!-- Generator: Adobe Illustrator 19.2.1, SVG Export Plug-In . SVG Version: 6.00 Build 0)  -->
<svg version="1.1" id="Layer_1" xmlns="http://www.w3.org/2000/svg" xmlns:xlink="http://www.w3.org/1999/xlink" x="0px" y="0px"
	 viewBox="0 0 60 60.5" style="enable-background:new 0 0 60 60.5;" xml:space="preserve">
<style type="text/css">
	.st0{fill:#DAD9D6;}
	.st1{fill:#FFFFFF;stroke:#000000;stroke-width:0.2977;}
	.st2{opacity:0.5;}
	.st3{fill:#FFFFFF;}
	.st4{fill:#4C4E56;}
	.st5{opacity:0.8;}
	.st6{opacity:0.15;fill:#FFFFFF;}
</style>
<title>cd-scroll-up</title>
<g>
	<g>
		<g>
			<path class="st0" d="M48.9,31.8c4.1,0,5.5-5.2,1.4-5.2c-2.8,0-13.8,0-13.8,0c0.5-2,1.4-8.3,1.4-8.3c-0.2-3.1-2.3-6.9-2.3-6.9
				c-2.4-1-3.5,0.4-3.5,0.4s0.1,4.9,0.1,6c0,1.1-5.6,10.2-6.9,11.3c-1.4,1.2-4.8,3.1-4.8,3.1c-4,9.8,0.9,13.7,0.9,13.7s1,0,2.6,0
				c1,0,2.2,1.5,3.5,1.5c6.1,0,15,0,17.1,0c4.1,0,5.5-5.2,1.4-5.2c4.1,0,5.5-5.2,1.4-5.2C51.5,37,53,31.8,48.9,31.8z"/>
		</g>
		<path class="st1" d="M42.2,26.8"/>
		
			<rect x="36.8" y="36.1" transform="matrix(0.2116 -0.9774 0.9774 0.2116 -2.398 70.4274)" class="st0" width="11.2" height="1.3"/>
		<g class="st2">
			<path class="st3" d="M49.3,31.5c4.3,0,5.8-5.5,1.5-5.5c-3,0-14.6,0-14.6,0c0.5-2.1,1.5-8.8,1.5-8.8c-0.2-3.3-2.4-7.3-2.4-7.3
				c-2.6-1.1-3.8,0.4-3.8,0.4s0.1,5.2,0.1,6.4c0,1.2-5.9,10.8-7.4,12c-1.4,1.2-5,3.3-5,3.3c-4.3,10.3,1,14.5,1,14.5s1.1,0,2.8,0
				c1,0,2.3,1.6,3.7,1.6c6.5,0,15.8,0,18.1,0c4.3,0,5.8-5.5,1.5-5.5c4.3,0,5.8-5.5,1.5-5.5C52.1,37,53.6,31.5,49.3,31.5z"/>
		</g>
		<path class="st4" d="M34,10.9c0.5,0,1,0.1,1.7,0.4c0,0,2.1,3.9,2.3,6.9c0,0-0.9,6.3-1.4,8.3c0,0,11,0,13.8,0
			c4.1,0,2.7,5.2-1.4,5.2c4.1,0,2.7,5.2-1.4,5.2c4.1,0,2.7,5.2-1.4,5.2c4.1,0,2.7,5.2-1.4,5.2c-2.1,0-11,0-17.1,0
			c-1.3,0-2.5-1.5-3.5-1.5c-1.6,0-2.6,0-2.6,0s-5-4-0.9-13.7c0,0,3.4-2,4.8-3.1c1.4-1.2,6.9-10.2,6.9-11.3c0-1.1-0.1-6-0.1-6
			S32.7,10.9,34,10.9 M34,8.3L34,8.3c-1.9,0-3.3,0.9-3.9,1.8c-0.4,0.5-0.6,1.1-0.5,1.7c0,0,0.1,4.1,0.1,5.6c-0.7,1.8-5,8.6-6,9.7
			c-0.9,0.7-3.1,2.1-4.4,2.9c-0.5,0.3-0.9,0.7-1.1,1.3c-4.7,11.4,1.4,16.6,1.7,16.8c0.5,0.4,1,0.6,1.6,0.6h2.3
			c0.1,0.1,0.3,0.2,0.4,0.3c0.8,0.5,1.9,1.2,3.4,1.2h17.1c3.1,0,6.5-2.4,6.5-5.8c0-0.5-0.1-0.9-0.2-1.4c1-1,1.6-2.3,1.6-3.8
			c0-0.5-0.1-0.9-0.2-1.4c1-1,1.6-2.3,1.6-3.8c0-0.5-0.1-0.9-0.2-1.4c1-1,1.6-2.3,1.6-3.8c0-1.3-0.5-2.5-1.5-3.3
			c-0.6-0.6-1.8-1.2-3.6-1.2H39.6c0.4-2.3,0.8-4.9,0.8-5.3c0-0.2,0-0.4,0-0.6c-0.2-3.5-2.3-7.5-2.6-8c-0.3-0.5-0.7-0.9-1.3-1.2
			C35.7,8.5,34.8,8.3,34,8.3L34,8.3z"/>
		<path class="st0" d="M52.7,29c0-0.1,0-0.1,0-0.2c0-0.1,0-0.2,0-0.3c0-0.1,0-0.1,0-0.2c0-0.1,0-0.1,0-0.2c0-0.1,0-0.2-0.1-0.3
			c0,0,0-0.1,0-0.1c-0.1-0.1-0.1-0.2-0.2-0.3c0,0-0.1-0.1-0.1-0.1c-0.1-0.1-0.1-0.1-0.2-0.2c0,0-0.1-0.1-0.1-0.1
			c-0.1-0.1-0.2-0.1-0.3-0.2c-0.1,0-0.1-0.1-0.2-0.1c-0.1,0-0.2-0.1-0.4-0.1c-0.1,0-0.1,0-0.2,0c-0.2,0-0.4-0.1-0.7-0.1l0,0
			c-1.1,0-3.3,0-5.7,0c-3.9,0-8.1,0-8.1,0c0.5-2,1.4-8.3,1.4-8.3c-0.2-3.1-2.3-6.9-2.3-6.9C35,11,34.4,10.9,34,10.9
			c-1.3,0-1.9,0.8-1.9,0.8s0.1,4.9,0.1,6c0,1.1-5.6,10.2-6.9,11.3c-1.4,1.2-4.8,3.1-4.8,3.1c-4,9.8,0.9,13.7,0.9,13.7s1,0,2.6,0
			c1,0,2.2,1.5,3.5,1.5c3.9,0,8.9,0,12.6,0c0,0,0,0,0,0h4.5c0.2,0,0.5,0,0.7-0.1c0.1,0,0.1,0,0.2,0c0.1,0,0.3-0.1,0.4-0.1
			c0.1,0,0.1,0,0.2-0.1c0.1,0,0.2-0.1,0.4-0.2c0.1,0,0.1-0.1,0.2-0.1c0.1-0.1,0.2-0.1,0.3-0.2c0,0,0.1-0.1,0.1-0.1
			c0.1-0.1,0.3-0.2,0.4-0.3c0,0,0.1-0.1,0.1-0.1c0.1-0.1,0.2-0.2,0.2-0.3c0.1-0.1,0.1-0.1,0.1-0.2c0-0.1,0.1-0.1,0.1-0.2
			c0-0.1,0.1-0.2,0.1-0.3c0-0.1,0-0.1,0.1-0.2c0-0.1,0.1-0.2,0.1-0.3c0,0,0-0.1,0-0.1c0.1-0.7,0-1.3-0.5-1.7c0,0,0,0,0,0
			c-0.1-0.1-0.2-0.2-0.3-0.2l0.2-0.8c0.9-0.4,1.5-1.1,1.8-1.9c0,0,0,0,0,0c0.1-0.2,0.1-0.4,0.2-0.6l0,0c0.1-0.8-0.2-1.5-0.8-1.9
			l0.2-0.8c0.9-0.4,1.5-1.1,1.8-1.9l0,0c0.1-0.2,0.1-0.4,0.2-0.6c0,0,0,0,0,0c0.1-0.8-0.2-1.5-0.8-1.9l0.2-0.8l0,0
			c0.2-0.1,0.3-0.2,0.5-0.2c0,0,0,0,0,0c0.7-0.5,1.2-1.1,1.4-1.7c0,0,0-0.1,0-0.1C52.6,29.2,52.6,29.1,52.7,29z M26.1,45.7
			c-0.6-0.4-1.3-0.8-2-0.8h-2.2c-0.8-0.9-3.6-4.5-0.5-12.1c0.9-0.5,3.4-2.1,4.6-3.1c1.3-1.1,7.3-10.4,7.3-12.1
			c0-0.9-0.1-4.3-0.1-5.6c0.2-0.1,0.5-0.2,0.9-0.2c0.3,0,0.6,0.1,1,0.2c0.5,0.9,1.8,3.8,2,6.1c-0.1,0.8-0.9,6.3-1.4,8.1l-0.3,1.2
			h1.3h9.4c0.5,1.5-0.6,4.2-2.4,4.2c2.6,0,1.4,5.2-1.1,5.2c2.6,0,1.4,5.2-1.1,5.2c1.8,0,1.8,2.7,0.6,4.2H27.6
			C27.1,46.4,26.6,46.1,26.1,45.7z"/>
		<g>
			<path class="st4" d="M20.9,29.7v19.1H9.4L7.9,29.7H20.9 M20.9,27.1h-13c-0.7,0-1.4,0.3-1.9,0.8c-0.5,0.5-0.7,1.2-0.7,2L6.8,49
				c0.1,1.4,1.2,2.4,2.6,2.4h11.5c1.4,0,2.6-1.2,2.6-2.6V29.7C23.5,28.2,22.3,27.1,20.9,27.1L20.9,27.1z"/>
			<g>
				<polygon class="st4" points="9.4,48.8 20.9,48.8 20.9,29.7 7.9,29.7 				"/>
			</g>
			<g class="st5">
				<g>
					<rect x="7.9" y="29.7" class="st3" width="13" height="2.4"/>
				</g>
				<path class="st3" d="M19.9,30.6v17.2h-9.6L9,30.6H19.9 M20.9,29.7h-13l1.5,19.1h11.5V29.7L20.9,29.7z"/>
			</g>
			<g class="st5">
				<circle class="st6" cx="17.6" cy="45.9" r="1.3"/>
				<g>
					<g>
						<circle class="st3" cx="17.5" cy="45.8" r="1.3"/>
					</g>
					<g>
						<circle class="st3" cx="17.5" cy="45.8" r="1.1"/>
					</g>
				</g>
			</g>
		</g>
	</g>
</g>
</svg>
