<?xml version="1.0" encoding="utf-8"?>
<!-- Generator: Adobe Illustrator 19.2.1, SVG Export Plug-In . SVG Version: 6.00 Build 0)  -->
<svg version="1.1" id="Layer_1" xmlns="http://www.w3.org/2000/svg" xmlns:xlink="http://www.w3.org/1999/xlink" x="0px" y="0px"
	 viewBox="0 0 200 200" style="enable-background:new 0 0 200 200;" xml:space="preserve">
<style type="text/css">
	.st0{fill:#4C4E56;}
	.st1{fill:none;stroke:#FFFFFF;stroke-width:4;stroke-linecap:round;stroke-linejoin:round;}
</style>
<title>Attribute3</title>
<circle class="st0" cx="100" cy="100" r="90"/>
<path class="st1" d="M83.4,128.2v-2.3c0.2-3.9-5-7.5-5-7.5l0,0c-16.7-11.9-20.6-35.1-8.7-51.8c6.7-9.5,17.5-15.2,29.2-15.6h2.2
	c20.5,0.6,36.6,17.7,36.1,38.2c-0.3,11.6-6.1,22.4-15.6,29.2l0,0c0,0-5.2,3.6-5,7.5v2.3"/>
<path class="st1" d="M84.1,127.9h31.9c1,0,1.8,0.8,1.8,1.8v3.4c0,1-0.8,1.8-1.8,1.8H84.1c-1,0-1.8-0.8-1.8-1.8v-3.4
	C82.3,128.7,83.1,127.9,84.1,127.9z"/>
<path class="st1" d="M84.1,134.8h31.9c1,0,1.8,0.8,1.8,1.8v3.4c0,1-0.8,1.8-1.8,1.8H84.1c-1,0-1.8-0.8-1.8-1.8v-3.4
	C82.3,135.6,83.1,134.8,84.1,134.8z"/>
<path class="st1" d="M113.1,141.8c0,4-5.9,7.2-13.1,7.2s-13.1-3.2-13.1-7.2"/>
<path class="st1" d="M99.2,127.9V87.2c0-1.6,1.3-2.9,2.8-2.9c0.4,0,0.8,0.1,1.2,0.2c5.3,2.2,7.8,8.3,5.6,13.6
	c-1.6,3.9-5.4,6.4-9.6,6.4c-5.7,0-8.9-4.7-8.9-10.4v-6.8"/>
</svg>
