<?xml version="1.0" encoding="utf-8"?>
<!-- Generator: Adobe Illustrator 19.1.0, SVG Export Plug-In . SVG Version: 6.00 Build 0)  -->
<svg version="1.1" id="Layer_1" xmlns="http://www.w3.org/2000/svg" xmlns:xlink="http://www.w3.org/1999/xlink" x="0px" y="0px"
	 viewBox="0 0 60 60" style="enable-background:new 0 0 60 60;" xml:space="preserve">
<style type="text/css">
	.st0{fill:none;stroke:#4C4E56;stroke-width:2;stroke-linecap:round;stroke-linejoin:round;stroke-miterlimit:10;}
</style>
<g>
	<path class="st0" d="M49.6,27.2L38.7,17.1c-0.3-0.3-0.8-0.4-1.2-0.4h-2.1c-0.5,0-0.9-0.4-0.9-0.9v-2.3c0-1.3-1.1-2.4-2.4-2.4h-1.8
		V5c0,0-18.5,1.8-18.5,20.5c0,15.5,0,21.6,0,23.4c0,0,0,0,0,0h24.3v-3.3c0-0.5-0.2-1-0.5-1.4L30,40c-0.4-0.4-0.6-1-0.6-1.6V35
		c0-0.9,0.9-1.5,1.7-1.2l10.8,4.8c0.8,0.3,1.6,0,2.1-0.6l5.9-7.9C50.6,29.1,50.4,27.9,49.6,27.2z"/>
	<path class="st0" d="M11.8,48.8c-1.2,0-2.2,1-2.2,2.2v1.8c0,1.2,1,2.2,2.2,2.2h24.4c1.2,0,2.2-1,2.2-2.2V51c0-1.2-1-2.2-2.2-2.2h0"
		/>
</g>
</svg>
