<?xml version="1.0" encoding="utf-8"?>
<!-- Generator: Adobe Illustrator 19.2.1, SVG Export Plug-In . SVG Version: 6.00 Build 0)  -->
<svg version="1.1" id="Layer_1" xmlns="http://www.w3.org/2000/svg" xmlns:xlink="http://www.w3.org/1999/xlink" x="0px" y="0px"
	 viewBox="0 0 200 200" style="enable-background:new 0 0 200 200;" xml:space="preserve">
<style type="text/css">
	.st0{fill:#4C4E56;}
	.st1{fill:none;stroke:#FFFFFF;stroke-width:4;stroke-linecap:round;stroke-linejoin:round;}
</style>
<title>Attribute3</title>
<circle class="st0" cx="100" cy="100" r="90"/>
<path class="st1" d="M144.8,107.8c0,0-13.6-26-44.8-26s-44.8,26-44.8,26"/>
<path class="st1" d="M55.1,107.8c0,0,13.6,26,44.8,26s44.8-26,44.8-26"/>
<path class="st1" d="M126.8,107.8c0-11.1-6.8-21-17.1-25.1c-6.5-1.2-13.2-1.2-19.6,0c-13.8,5.4-20.7,21-15.2,34.9
	c2.7,7,8.3,12.5,15.2,15.2c6.5,1.2,13.2,1.2,19.6,0C120.1,128.8,126.8,118.9,126.8,107.8z"/>
<line class="st1" x1="99.9" y1="80.1" x2="99.9" y2="66.2"/>
<line class="st1" x1="81.2" y1="85.3" x2="75.3" y2="72.7"/>
<line class="st1" x1="63.3" y1="95.3" x2="52.5" y2="86.6"/>
<line class="st1" x1="118.8" y1="85.3" x2="124.7" y2="72.7"/>
<line class="st1" x1="136.7" y1="95.3" x2="147.5" y2="86.6"/>
</svg>
