<?xml version="1.0" encoding="utf-8"?>
<!-- Generator: Adobe Illustrator 19.1.0, SVG Export Plug-In . SVG Version: 6.00 Build 0)  -->
<svg version="1.1" id="Layer_1" xmlns="http://www.w3.org/2000/svg" xmlns:xlink="http://www.w3.org/1999/xlink" x="0px" y="0px"
	 viewBox="0 0 98.1 28.6" style="enable-background:new 0 0 98.1 28.6;" xml:space="preserve">
<style type="text/css">
	.st0{fill:#4E4E56;}
</style>
<g>
	<g>
		<g>
			<path class="st0" d="M8.9,14.3v7c0,1.7,0.6,2.6,2.3,2.6c0.6,0,1.3-0.1,1.8-0.3L13,28c-0.8,0.3-2.2,0.6-3.5,0.6
				C4.6,28.6,3,26,3,22.1v-7.8H0V9.7h13.2v4.6H8.9z"/>
			<path class="st0" d="M27.4,28.2v-10c0-2.1-0.5-3.9-2.7-3.9c-2.1,0-3.3,1.7-3.3,3.9v10h-6.1V0.5h6.1v11.5h0.1
				c0.8-1.5,2.7-2.8,5.3-2.8c5,0,6.7,3.8,6.7,7.5v11.4H27.4z"/>
			<path class="st0" d="M39.7,6.7c-2,0-3.5-1.5-3.5-3.3c0-1.8,1.5-3.3,3.5-3.3c1.9,0,3.5,1.5,3.5,3.3C43.2,5.2,41.6,6.7,39.7,6.7z"
				/>
			<path class="st0" d="M81,15.9c-2,0-3.5-1.5-3.5-3.3c0-1.8,1.5-3.3,3.5-3.3c1.9,0,3.5,1.5,3.5,3.3C84.4,14.4,82.9,15.9,81,15.9z"
				/>
			<path class="st0" d="M5.9,6.7c-2,0-3.5-1.5-3.5-3.3C2.4,1.6,4,0,5.9,0c1.9,0,3.5,1.5,3.5,3.3C9.4,5.2,7.8,6.7,5.9,6.7z"/>
			<rect x="36.7" y="9.7" class="st0" width="6.1" height="18.4"/>
			<path class="st0" d="M58.2,28.2V18.1c0-2-0.6-3.9-2.7-3.9c-2.1,0-3.3,1.9-3.3,4v10h-6.1V9.7h5.9v2.6H52c0.9-1.6,3-3.1,5.5-3.1
				c5,0,6.7,3.8,6.7,7.5v11.4H58.2z"/>
			<polygon class="st0" points="73.7,18.9 80.8,18.9 87.2,28.2 79.7,28.2 			"/>
			<rect x="67.5" y="0.5" class="st0" width="6.1" height="27.6"/>
		</g>
		<g>
			<path class="st0" d="M91,1.2h-1.8V6h-0.8V1.2h-1.8V0.5H91V1.2z M98.1,6h-0.8V1.4h0L95.4,6h-0.5L93,1.4h0V6h-0.8V0.5h1.2l1.7,4.2
				l1.7-4.2h1.2V6z"/>
		</g>
	</g>
</g>
</svg>
