<?xml version="1.0" encoding="utf-8"?>
<!-- Generator: Adobe Illustrator 19.1.0, SVG Export Plug-In . SVG Version: 6.00 Build 0)  -->
<svg version="1.1" id="Layer_1" xmlns="http://www.w3.org/2000/svg" xmlns:xlink="http://www.w3.org/1999/xlink" x="0px" y="0px"
	 viewBox="0 0 60 60" style="enable-background:new 0 0 60 60;" xml:space="preserve">
<style type="text/css">
	.st0{fill:none;stroke:#4C4E56;stroke-width:2;stroke-linecap:round;stroke-linejoin:round;stroke-miterlimit:10;}
</style>
<g>
	<g>
		<path class="st0" d="M3.7,54.3L9,49c1.8-1.8,4.3-2.8,6.8-2.8h20c1.8,0,3.6-0.5,5.2-1.4c0.2-0.1,0.3-0.2,0.4-0.3
			c1.5-1.5,11.5-11.2,14.1-13.5c2.8-2.6,1.5-7-4.1-4.6L38.6,31c-0.8,0.3-1.7,0.5-2.6,0.5H17.4"/>
		<path class="st0" d="M0.1,36l9.5-8.7C11,25.8,13,25,15.1,25h10.3c1.7,0,3.3,0.8,4.3,2.2l3.5,4.2"/>
	</g>
	<path class="st0" d="M51.3,26.1c1.9-2.9,3.1-6.2,3.1-9.9c0-6.5-5.3-11.8-11.8-11.8S30.8,9.6,30.8,16.2c0-6.5-5.3-11.8-11.8-11.8
		c-6.5,0-11.8,5.3-11.8,11.8c0,3.7,1.3,7.1,3.2,10"/>
</g>
</svg>
