<?xml version="1.0" encoding="utf-8"?>
<!-- Generator: Adobe Illustrator 19.2.1, SVG Export Plug-In . SVG Version: 6.00 Build 0)  -->
<svg version="1.1" id="Layer_1" xmlns="http://www.w3.org/2000/svg" xmlns:xlink="http://www.w3.org/1999/xlink" x="0px" y="0px"
	 viewBox="0 0 200 200" style="enable-background:new 0 0 200 200;" xml:space="preserve">
<style type="text/css">
	.st0{fill:#4C4E56;}
	.st1{fill:none;stroke:#FFFFFF;stroke-width:4;stroke-linecap:round;stroke-linejoin:round;}
</style>
<title>Attribute3</title>
<circle class="st0" cx="100" cy="100" r="90"/>
<path class="st1" d="M92,119.9v14.3c0,4.2-3.4,7.6-7.6,7.6l0,0c-4.2,0-7.6-3.4-7.6-7.6v-14.6"/>
<path class="st1" d="M110.8,64H80.7c-15.3-0.3-27.9,11.9-28.2,27.1c-0.3,15.3,11.9,27.9,27.1,28.2c0.4,0,0.7,0,1.1,0h30.1l20,4.8
	v-65L110.8,64z"/>
<line class="st1" x1="110.8" y1="64" x2="110.8" y2="118.7"/>
<line class="st1" x1="138.3" y1="69.8" x2="145.3" y2="65"/>
<line class="st1" x1="138.4" y1="113.6" x2="145.3" y2="118.3"/>
<line class="st1" x1="138.3" y1="92.5" x2="147.2" y2="92.5"/>
</svg>
