<svg id="Layer_1" data-name="Layer 1" xmlns="http://www.w3.org/2000/svg" viewBox="0 0 566.79 60.33"><defs><style>.cls-1{fill:#4e4e56;}</style></defs><title>Untitled-2</title><path class="cls-1" d="M49.71,63.74h0.12l8.78-23.92H63.1L49,75.49a15,15,0,0,1-3.24,5.24,7.67,7.67,0,0,1-5.66,2,18.79,18.79,0,0,1-3.69-.36l0.42-3.76a9.5,9.5,0,0,0,3,.48,4.33,4.33,0,0,0,3.33-1.3A11.24,11.24,0,0,0,45.29,74l2.3-5.94L35.48,39.82h4.6Z" transform="translate(-35.48 -22.37)"/><path class="cls-1" d="M94.37,54a15.48,15.48,0,0,1-1.12,5.94,14.3,14.3,0,0,1-3.12,4.72,14.14,14.14,0,0,1-4.78,3.12,16.28,16.28,0,0,1-6.12,1.12,16.1,16.1,0,0,1-6.06-1.12,14,14,0,0,1-7.9-7.84,16.28,16.28,0,0,1,0-11.87,14,14,0,0,1,7.9-7.84,16.08,16.08,0,0,1,6.06-1.12,16.26,16.26,0,0,1,6.12,1.12,14,14,0,0,1,7.9,7.84A15.48,15.48,0,0,1,94.37,54ZM90,54a13,13,0,0,0-.76-4.45A10.92,10.92,0,0,0,87.1,45.9a10.19,10.19,0,0,0-3.39-2.45,10.72,10.72,0,0,0-4.48-.91,10.51,10.51,0,0,0-4.45.91,10.27,10.27,0,0,0-3.36,2.45,10.9,10.9,0,0,0-2.15,3.63,13.47,13.47,0,0,0,0,8.9,10.9,10.9,0,0,0,2.15,3.63,9.89,9.89,0,0,0,3.36,2.42,10.83,10.83,0,0,0,4.45.88,11,11,0,0,0,4.48-.88,9.83,9.83,0,0,0,3.39-2.42,10.91,10.91,0,0,0,2.15-3.63A13,13,0,0,0,90,54Z" transform="translate(-35.48 -22.37)"/><path class="cls-1" d="M120.89,68.16q-0.12-1.15-.18-2.54t-0.06-2.3h-0.12a9.33,9.33,0,0,1-3.94,4,11.5,11.5,0,0,1-5.75,1.54q-5.39,0-8.09-3.21a12.75,12.75,0,0,1-2.7-8.48V39.82h4.12V55.5a20.78,20.78,0,0,0,.36,4.06,8.49,8.49,0,0,0,1.24,3.12,5.93,5.93,0,0,0,2.36,2,8.45,8.45,0,0,0,3.73.73,8,8,0,0,0,3.18-.67,7.83,7.83,0,0,0,2.76-2,10.14,10.14,0,0,0,1.94-3.45,15.06,15.06,0,0,0,.73-4.94V39.82h4.12V61.92q0,1.15.06,3t0.18,3.27h-3.94Z" transform="translate(-35.48 -22.37)"/><path class="cls-1" d="M132.31,43.09q-0.06-1.82-.18-3.27h3.94q0.12,1.15.18,2.54t0.06,2.3h0.12a9.82,9.82,0,0,1,3.63-4,9.92,9.92,0,0,1,5.45-1.54c0.52,0,1,0,1.42.06a7.71,7.71,0,0,1,1.3.24l-0.54,3.94a8,8,0,0,0-1.21-.24,12.09,12.09,0,0,0-1.7-.12,8.43,8.43,0,0,0-3.15.6,6.76,6.76,0,0,0-2.63,1.9,10,10,0,0,0-1.82,3.32,15,15,0,0,0-.7,4.86v14.5h-4.12V46.05Q132.37,44.9,132.31,43.09Z" transform="translate(-35.48 -22.37)"/><path class="cls-1" d="M170.53,63.38v4.79h-4.12V22.37h4.12V44.72h0.12a11.7,11.7,0,0,1,4.72-4.21,13.49,13.49,0,0,1,6-1.42,15.21,15.21,0,0,1,6,1.15,13.74,13.74,0,0,1,4.6,3.15,14.22,14.22,0,0,1,3,4.72,16.81,16.81,0,0,1,0,11.75,14.23,14.23,0,0,1-3,4.72,13.73,13.73,0,0,1-4.6,3.15,15.21,15.21,0,0,1-6,1.15,13.73,13.73,0,0,1-6-1.39,11.62,11.62,0,0,1-4.72-4.12h-0.12ZM191.66,54a13.46,13.46,0,0,0-.73-4.45,10.78,10.78,0,0,0-2.09-3.63,9.87,9.87,0,0,0-3.36-2.45,10.87,10.87,0,0,0-4.54-.91,10.73,10.73,0,0,0-4.36.88,10.48,10.48,0,0,0-3.45,2.42,11.18,11.18,0,0,0-2.27,3.63,12.86,12.86,0,0,0,0,9,10.82,10.82,0,0,0,2.27,3.6,10.69,10.69,0,0,0,7.81,3.27,11.2,11.2,0,0,0,4.54-.88,9.52,9.52,0,0,0,3.36-2.42,10.78,10.78,0,0,0,2.09-3.63A13.46,13.46,0,0,0,191.66,54Z" transform="translate(-35.48 -22.37)"/><path class="cls-1" d="M201.89,43.09q-0.06-1.82-.18-3.27h3.94q0.12,1.15.18,2.54c0,0.93.06,1.7,0.06,2.3H206a9.82,9.82,0,0,1,3.63-4,9.92,9.92,0,0,1,5.45-1.54c0.52,0,1,0,1.42.06a7.71,7.71,0,0,1,1.3.24l-0.54,3.94a8,8,0,0,0-1.21-.24,12.09,12.09,0,0,0-1.7-.12,8.43,8.43,0,0,0-3.15.6,6.76,6.76,0,0,0-2.63,1.9,10,10,0,0,0-1.82,3.32,15,15,0,0,0-.7,4.86v14.5H202V46.05Q202,44.9,201.89,43.09Z" transform="translate(-35.48 -22.37)"/><path class="cls-1" d="M239.56,49.82q0-3.67-1.94-5.47a8,8,0,0,0-5.63-1.8,12.16,12.16,0,0,0-4.72.91,11.32,11.32,0,0,0-3.69,2.42l-2.3-2.73a13.59,13.59,0,0,1,4.63-2.91,17.42,17.42,0,0,1,6.51-1.15,14.12,14.12,0,0,1,4.3.64,10.19,10.19,0,0,1,3.51,1.91,8.65,8.65,0,0,1,2.36,3.21,11.26,11.26,0,0,1,.85,4.54V61.8q0,1.63.12,3.39a23.54,23.54,0,0,0,.36,3h-3.7q-0.18-1-.3-2.24a23.63,23.63,0,0,1-.12-2.36h-0.12a11.94,11.94,0,0,1-4.39,4.09,13,13,0,0,1-5.91,1.24,13.19,13.19,0,0,1-3.36-.46,9.39,9.39,0,0,1-3.15-1.49,8.41,8.41,0,0,1-2.36-2.67,8,8,0,0,1-.94-4,7.64,7.64,0,0,1,1.67-5.2,10,10,0,0,1,4.45-2.86A26.13,26.13,0,0,1,232.08,51q3.6-.27,7.48-0.27v-0.9ZM238.34,54q-2.54,0-5.12.21a22.33,22.33,0,0,0-4.66.85,8.82,8.82,0,0,0-3.42,1.85,4.13,4.13,0,0,0-1.33,3.21,5.15,5.15,0,0,0,.58,2.54,4.7,4.7,0,0,0,1.54,1.67,6.55,6.55,0,0,0,2.15.91,10.6,10.6,0,0,0,2.39.27,9.42,9.42,0,0,0,3.88-.76,8.2,8.2,0,0,0,2.85-2.06,9.12,9.12,0,0,0,1.76-3,10.55,10.55,0,0,0,.61-3.57V54h-1.21Z" transform="translate(-35.48 -22.37)"/><path class="cls-1" d="M254.64,39.82q0.12,1.15.18,2.54t0.06,2.3H255a9.33,9.33,0,0,1,3.94-4,11.5,11.5,0,0,1,5.75-1.54q5.39,0,8.09,3.21a12.76,12.76,0,0,1,2.7,8.48V68.16h-4.12V52.48a20.79,20.79,0,0,0-.36-4.06,8.51,8.51,0,0,0-1.24-3.12,5.94,5.94,0,0,0-2.36-2,8.46,8.46,0,0,0-3.73-.73,8,8,0,0,0-3.18.67,7.82,7.82,0,0,0-2.76,2,10.12,10.12,0,0,0-1.94,3.45,15.06,15.06,0,0,0-.73,4.94V68.16h-4.12V46.05q0-1.15-.06-3t-0.18-3.27h3.94Z" transform="translate(-35.48 -22.37)"/><path class="cls-1" d="M306.58,63.38a11.62,11.62,0,0,1-4.72,4.12,13.73,13.73,0,0,1-6,1.39,15.21,15.21,0,0,1-6-1.15,13.72,13.72,0,0,1-4.6-3.15,14.22,14.22,0,0,1-3-4.72,16.8,16.8,0,0,1,0-11.75,14.21,14.21,0,0,1,3-4.72,13.73,13.73,0,0,1,4.6-3.15,15.21,15.21,0,0,1,6-1.15,13.49,13.49,0,0,1,6,1.42,11.7,11.7,0,0,1,4.72,4.21h0.12V22.37h4.12V68.16H306.7V63.38h-0.12Zm-21-9.39a13.46,13.46,0,0,0,.73,4.45,10.8,10.8,0,0,0,2.09,3.63,9.52,9.52,0,0,0,3.36,2.42,11.2,11.2,0,0,0,4.54.88,10.62,10.62,0,0,0,10.08-6.87,12.86,12.86,0,0,0,0-9,11.18,11.18,0,0,0-2.27-3.63,10.48,10.48,0,0,0-3.45-2.42,10.73,10.73,0,0,0-4.36-.88,10.87,10.87,0,0,0-4.54.91,9.87,9.87,0,0,0-3.36,2.45,10.8,10.8,0,0,0-2.09,3.63A13.46,13.46,0,0,0,285.56,54Z" transform="translate(-35.48 -22.37)"/><path class="cls-1" d="M323.63,28.91a2.68,2.68,0,0,1-.91,2.09,2.85,2.85,0,0,1-4,0,2.86,2.86,0,0,1,0-4.18,2.85,2.85,0,0,1,4,0A2.69,2.69,0,0,1,323.63,28.91Zm-0.85,39.25h-4.12V39.82h4.12V68.16Z" transform="translate(-35.48 -22.37)"/><path class="cls-1" d="M334.26,39.82q0.12,1.15.18,2.54t0.06,2.3h0.12a9.33,9.33,0,0,1,3.94-4,11.5,11.5,0,0,1,5.75-1.54q5.39,0,8.09,3.21a12.76,12.76,0,0,1,2.7,8.48V68.16H351V52.48a20.79,20.79,0,0,0-.36-4.06,8.51,8.51,0,0,0-1.24-3.12,5.94,5.94,0,0,0-2.36-2,8.46,8.46,0,0,0-3.73-.73,8,8,0,0,0-3.18.67,7.82,7.82,0,0,0-2.76,2,10.12,10.12,0,0,0-1.94,3.45,15.06,15.06,0,0,0-.73,4.94V68.16h-4.12V46.05q0-1.15-.06-3t-0.18-3.27h3.94Z" transform="translate(-35.48 -22.37)"/><path class="cls-1" d="M364.4,73.86a13.67,13.67,0,0,0,4.63,3.7,14.33,14.33,0,0,0,11.36.64,8.93,8.93,0,0,0,3.42-2.39,9.57,9.57,0,0,0,1.91-3.54,15.09,15.09,0,0,0,.61-4.33V62.59H386.2a10.82,10.82,0,0,1-4.63,4.12,13.81,13.81,0,0,1-6.09,1.45,15.94,15.94,0,0,1-6-1.09,13.66,13.66,0,0,1-4.6-3,13.33,13.33,0,0,1-3-4.57,15.42,15.42,0,0,1-1.06-5.75,15.26,15.26,0,0,1,1.06-5.69,14.36,14.36,0,0,1,3-4.66,13.73,13.73,0,0,1,4.6-3.15,15.21,15.21,0,0,1,6-1.15,13.63,13.63,0,0,1,6.06,1.45,11.15,11.15,0,0,1,4.66,4.18h0.12V39.82h4.12v28.1a20.74,20.74,0,0,1-.64,4.91,12.39,12.39,0,0,1-2.36,4.79,13.36,13.36,0,0,1-4.69,3.63,17.55,17.55,0,0,1-7.69,1.45,19.06,19.06,0,0,1-7.51-1.51A18.11,18.11,0,0,1,361.43,77Zm0.79-20.23a12.32,12.32,0,0,0,.73,4.24A10.63,10.63,0,0,0,368,61.38a9.7,9.7,0,0,0,3.36,2.39,11.18,11.18,0,0,0,4.54.88,11.79,11.79,0,0,0,4.36-.79,10,10,0,0,0,3.45-2.24A10.28,10.28,0,0,0,386,58.14a12,12,0,0,0,.82-4.51,11,11,0,0,0-6.54-10.18,10.42,10.42,0,0,0-4.36-.91,10.87,10.87,0,0,0-4.54.91A10.07,10.07,0,0,0,368,45.87a10.64,10.64,0,0,0-2.09,3.51A12.31,12.31,0,0,0,365.18,53.63Z" transform="translate(-35.48 -22.37)"/><path class="cls-1" d="M417.39,82.7h-4.12V39.82h4.12v4.91h0.18a11.25,11.25,0,0,1,4.69-4.21,13.56,13.56,0,0,1,6-1.42,15.21,15.21,0,0,1,6,1.15,13.74,13.74,0,0,1,4.6,3.15,14.23,14.23,0,0,1,3,4.72,16.81,16.81,0,0,1,0,11.75,14.24,14.24,0,0,1-3,4.72,13.73,13.73,0,0,1-4.6,3.15,15.21,15.21,0,0,1-6,1.15,13.56,13.56,0,0,1-6-1.42,11.52,11.52,0,0,1-4.69-4.09h-0.18V82.7ZM438.53,54a13.46,13.46,0,0,0-.73-4.45,10.78,10.78,0,0,0-2.09-3.63,9.87,9.87,0,0,0-3.36-2.45,10.87,10.87,0,0,0-4.54-.91,10.73,10.73,0,0,0-4.36.88A10.48,10.48,0,0,0,420,45.84a11.18,11.18,0,0,0-2.27,3.63,12.86,12.86,0,0,0,0,9,10.82,10.82,0,0,0,2.27,3.6,10.69,10.69,0,0,0,7.81,3.27,11.2,11.2,0,0,0,4.54-.88,9.52,9.52,0,0,0,3.36-2.42,10.78,10.78,0,0,0,2.09-3.63A13.46,13.46,0,0,0,438.53,54Z" transform="translate(-35.48 -22.37)"/><path class="cls-1" d="M466.84,49.82q0-3.67-1.94-5.47a8,8,0,0,0-5.63-1.8,12.16,12.16,0,0,0-4.72.91,11.32,11.32,0,0,0-3.69,2.42l-2.3-2.73a13.59,13.59,0,0,1,4.63-2.91,17.42,17.42,0,0,1,6.51-1.15,14.12,14.12,0,0,1,4.3.64,10.2,10.2,0,0,1,3.51,1.91,8.65,8.65,0,0,1,2.36,3.21,11.26,11.26,0,0,1,.85,4.54V61.8q0,1.63.12,3.39a23.55,23.55,0,0,0,.36,3h-3.7q-0.18-1-.3-2.24t-0.12-2.36H467a11.94,11.94,0,0,1-4.39,4.09,13,13,0,0,1-5.91,1.24,13.19,13.19,0,0,1-3.36-.46,9.39,9.39,0,0,1-3.15-1.49,8.41,8.41,0,0,1-2.36-2.67,8,8,0,0,1-.94-4,7.64,7.64,0,0,1,1.67-5.2A10,10,0,0,1,453,52.21,26.13,26.13,0,0,1,459.36,51q3.6-.27,7.48-0.27v-0.9ZM465.63,54q-2.54,0-5.12.21a22.34,22.34,0,0,0-4.66.85,8.82,8.82,0,0,0-3.42,1.85,4.13,4.13,0,0,0-1.33,3.21,5.15,5.15,0,0,0,.58,2.54,4.7,4.7,0,0,0,1.54,1.67,6.55,6.55,0,0,0,2.15.91,10.6,10.6,0,0,0,2.39.27,9.42,9.42,0,0,0,3.88-.76,8.2,8.2,0,0,0,2.85-2.06,9.12,9.12,0,0,0,1.76-3,10.56,10.56,0,0,0,.61-3.57V54h-1.21Z" transform="translate(-35.48 -22.37)"/><path class="cls-1" d="M478.17,43.09q-0.06-1.82-.18-3.27h3.94q0.12,1.15.18,2.54t0.06,2.3h0.12a9.82,9.82,0,0,1,3.63-4,9.92,9.92,0,0,1,5.45-1.54c0.52,0,1,0,1.42.06a7.71,7.71,0,0,1,1.3.24l-0.54,3.94a8,8,0,0,0-1.21-.24,12.09,12.09,0,0,0-1.7-.12,8.43,8.43,0,0,0-3.15.6,6.76,6.76,0,0,0-2.63,1.9A10,10,0,0,0,483,48.8a15,15,0,0,0-.7,4.86v14.5h-4.12V46.05Q478.23,44.9,478.17,43.09Z" transform="translate(-35.48 -22.37)"/><path class="cls-1" d="M513.55,43.27h-8V59.8a9.4,9.4,0,0,0,.3,2.6,3.69,3.69,0,0,0,.88,1.6,3,3,0,0,0,1.36.79,6.49,6.49,0,0,0,1.7.21,7.17,7.17,0,0,0,1.79-.24,9,9,0,0,0,1.79-.67l0.18,3.57a12.15,12.15,0,0,1-2.27.64,14.66,14.66,0,0,1-2.57.21,10.51,10.51,0,0,1-2.42-.3,6.13,6.13,0,0,1-2.36-1.15,6.3,6.3,0,0,1-1.79-2.3,8.88,8.88,0,0,1-.7-3.82V43.27h-5.87V39.82h5.88v-8h4.12v8h8v3.45Z" transform="translate(-35.48 -22.37)"/><path class="cls-1" d="M521.46,39.82q0.12,1.15.18,2.54c0,0.93.06,1.7,0.06,2.3h0.12a9.33,9.33,0,0,1,3.94-4,11.5,11.5,0,0,1,5.75-1.54q5.39,0,8.09,3.21a12.76,12.76,0,0,1,2.7,8.48V68.16h-4.12V52.48a20.8,20.8,0,0,0-.36-4.06,8.51,8.51,0,0,0-1.24-3.12,5.94,5.94,0,0,0-2.36-2,8.46,8.46,0,0,0-3.73-.73,8,8,0,0,0-3.18.67,7.82,7.82,0,0,0-2.76,2,10.12,10.12,0,0,0-1.94,3.45,15.06,15.06,0,0,0-.73,4.94V68.16h-4.12V46.05q0-1.15-.06-3t-0.18-3.27h3.94Z" transform="translate(-35.48 -22.37)"/><path class="cls-1" d="M575.88,53.14V54a9.43,9.43,0,0,1-.06,1h-23.5a11,11,0,0,0,.85,4,10.08,10.08,0,0,0,2.18,3.27,10.52,10.52,0,0,0,3.27,2.21,10.83,10.83,0,0,0,9.6-.67,11.08,11.08,0,0,0,3.54-3.42l3.09,2.42a15.37,15.37,0,0,1-5.6,4.6,15.69,15.69,0,0,1-6.57,1.39,15.09,15.09,0,0,1-5.84-1.12,13.69,13.69,0,0,1-4.63-3.12,14.76,14.76,0,0,1-3.06-4.72A15.44,15.44,0,0,1,548,54a15.82,15.82,0,0,1,1.09-5.94,14.35,14.35,0,0,1,3-4.72,13.94,13.94,0,0,1,4.54-3.12,14.09,14.09,0,0,1,5.63-1.12,14.45,14.45,0,0,1,5.88,1.12,12.13,12.13,0,0,1,4.24,3A13,13,0,0,1,575,47.69,16.6,16.6,0,0,1,575.88,53.14Zm-4.18-1.33a10.22,10.22,0,0,0-2.57-6.63,8.74,8.74,0,0,0-6.81-2.63,9.55,9.55,0,0,0-3.82.76,10.1,10.1,0,0,0-3.09,2.06,10.24,10.24,0,0,0-2.12,3,9.57,9.57,0,0,0-.91,3.48h19.32Z" transform="translate(-35.48 -22.37)"/><path class="cls-1" d="M581.67,43.09q-0.06-1.82-.18-3.27h3.94q0.12,1.15.18,2.54c0,0.93.06,1.7,0.06,2.3h0.12a9.82,9.82,0,0,1,3.63-4,9.92,9.92,0,0,1,5.45-1.54c0.52,0,1,0,1.42.06a7.71,7.71,0,0,1,1.3.24l-0.54,3.94a8,8,0,0,0-1.21-.24,12.09,12.09,0,0,0-1.7-.12,8.43,8.43,0,0,0-3.15.6,6.76,6.76,0,0,0-2.63,1.9,10,10,0,0,0-1.82,3.32,15,15,0,0,0-.7,4.86v14.5h-4.12V46.05Q581.73,44.9,581.67,43.09Z" transform="translate(-35.48 -22.37)"/><path class="cls-1" d="M602.27,65.26a3.29,3.29,0,0,1-.91,2.27,3.29,3.29,0,0,1-4.72,0,3.29,3.29,0,0,1,0-4.54,3.29,3.29,0,0,1,4.72,0A3.29,3.29,0,0,1,602.27,65.26Z" transform="translate(-35.48 -22.37)"/></svg>